<?xml version="1.0" encoding="UTF-8"?>
<svg xmlns="http://www.w3.org/2000/svg" viewBox="0 0 1600 900" preserveAspectRatio="xMidYMid slice" role="img" aria-labelledby="i-title i-desc">
  <title id="i-title">Appendix I hero: 8 reference architectures grid</title>
  <desc id="i-desc">Eight architecture profile cards arranged in a 4-by-2 grid (Small, Medium, Large, VDI on top row; Hybrid+NC2, ROBO, Greenfield, Compliance on bottom row), each showing node count silhouette, VM range, and target profile. Mono path top-left. Purple appendix accent. Sizer-disclaimer strip at the bottom.</desc>

  <defs>
    <radialGradient id="bgRad" cx="50%" cy="40%" r="80%">
      <stop offset="0%" stop-color="#143664"/>
      <stop offset="55%" stop-color="#0c1f3a"/>
      <stop offset="100%" stop-color="#070f1c"/>
    </radialGradient>

    <filter id="purpleGlow" x="-30%" y="-30%" width="160%" height="160%">
      <feGaussianBlur stdDeviation="3" result="b"/>
      <feMerge><feMergeNode in="b"/><feMergeNode in="SourceGraphic"/></feMerge>
    </filter>
  </defs>

  <rect width="1600" height="900" fill="url(#bgRad)"/>

  <g stroke="rgba(74,158,255,0.06)" stroke-width="1" fill="none">
    <line x1="0" y1="220" x2="1600" y2="220"/>
    <line x1="0" y1="500" x2="1600" y2="500"/>
    <line x1="0" y1="760" x2="1600" y2="760"/>
  </g>

  <text x="60" y="64" font-family="JetBrains Mono, ui-monospace, monospace" font-size="15" letter-spacing="0.04em" fill="#a8b8d4">
    <tspan fill="#c084fc">/</tspan>nix<tspan fill="#c084fc">/</tspan>nutanix<tspan fill="#c084fc">/</tspan>appendix-i-reference-architectures
  </text>
  <text x="60" y="86" font-family="JetBrains Mono, ui-monospace, monospace" font-size="11" letter-spacing="0.10em" fill="#6b7a9a" opacity="0.85">REFERENCE · STARTING-POINT DESIGNS · ALWAYS CUSTOMIZE</text>

  <text x="800" y="146" text-anchor="middle" font-family="Inter, sans-serif" font-size="20" font-weight="700" fill="#e8f0ff" letter-spacing="0.16em">EIGHT REFERENCE ARCHITECTURES</text>

  <!-- Top row: Small, Medium, Large, VDI -->
  <g font-family="Inter, sans-serif">
    <!-- Small -->
    <g transform="translate(80, 220)" filter="url(#purpleGlow)">
      <rect x="0" y="0" width="340" height="240" rx="10" fill="rgba(192,132,252,0.12)" stroke="#c084fc" stroke-width="1.6"/>
      <text x="20" y="34" font-size="14" font-weight="700" fill="#c084fc" letter-spacing="0.10em">01 · SMALL</text>
      <text x="20" y="60" font-size="13" fill="#e8f0ff">Mid-market, single site + DR</text>
      <!-- Node silhouettes: 6-8 nodes -->
      <g transform="translate(20, 86)">
        <rect x="0"  y="0" width="34" height="48" rx="3" fill="rgba(0,212,255,0.18)" stroke="#00d4ff" stroke-width="1"/>
        <rect x="40" y="0" width="34" height="48" rx="3" fill="rgba(0,212,255,0.18)" stroke="#00d4ff" stroke-width="1"/>
        <rect x="80" y="0" width="34" height="48" rx="3" fill="rgba(0,212,255,0.18)" stroke="#00d4ff" stroke-width="1"/>
        <rect x="120" y="0" width="34" height="48" rx="3" fill="rgba(0,212,255,0.18)" stroke="#00d4ff" stroke-width="1"/>
        <rect x="160" y="0" width="34" height="48" rx="3" fill="rgba(0,212,255,0.18)" stroke="#00d4ff" stroke-width="1"/>
        <rect x="200" y="0" width="34" height="48" rx="3" fill="rgba(0,212,255,0.18)" stroke="#00d4ff" stroke-width="1"/>
        <rect x="240" y="0" width="34" height="48" rx="3" fill="rgba(0,212,255,0.18)" stroke="#00d4ff" stroke-width="1"/>
        <rect x="280" y="0" width="34" height="48" rx="3" fill="rgba(0,212,255,0.18)" stroke="#00d4ff" stroke-width="1"/>
      </g>
      <text x="20" y="170" font-family="JetBrains Mono, monospace" font-size="11" fill="#a8b8d4">6-8 nodes · all-NVMe · 25 GbE</text>
      <text x="20" y="190" font-family="JetBrains Mono, monospace" font-size="11" fill="#a8b8d4">VMs: 100-250 · 30-60 TB usable</text>
      <text x="20" y="216" font-family="JetBrains Mono, monospace" font-size="11" fill="#34d399">NCI Pro · NCM Pro · Async DR</text>
    </g>

    <!-- Medium -->
    <g transform="translate(450, 220)" filter="url(#purpleGlow)">
      <rect x="0" y="0" width="340" height="240" rx="10" fill="rgba(192,132,252,0.12)" stroke="#c084fc" stroke-width="1.6"/>
      <text x="20" y="34" font-size="14" font-weight="700" fill="#c084fc" letter-spacing="0.10em">02 · MEDIUM</text>
      <text x="20" y="60" font-size="13" fill="#e8f0ff">Larger mid-market / smaller enterprise</text>
      <g transform="translate(20, 86)">
        <g fill="rgba(0,212,255,0.18)" stroke="#00d4ff" stroke-width="1">
          <rect x="0"   y="0" width="22" height="48" rx="3"/>
          <rect x="26"  y="0" width="22" height="48" rx="3"/>
          <rect x="52"  y="0" width="22" height="48" rx="3"/>
          <rect x="78"  y="0" width="22" height="48" rx="3"/>
          <rect x="104" y="0" width="22" height="48" rx="3"/>
          <rect x="130" y="0" width="22" height="48" rx="3"/>
          <rect x="156" y="0" width="22" height="48" rx="3"/>
          <rect x="182" y="0" width="22" height="48" rx="3"/>
          <rect x="208" y="0" width="22" height="48" rx="3"/>
          <rect x="234" y="0" width="22" height="48" rx="3"/>
          <rect x="260" y="0" width="22" height="48" rx="3"/>
          <rect x="286" y="0" width="22" height="48" rx="3"/>
        </g>
      </g>
      <text x="20" y="170" font-family="JetBrains Mono, monospace" font-size="11" fill="#a8b8d4">12-16 nodes · 25/100 GbE</text>
      <text x="20" y="190" font-family="JetBrains Mono, monospace" font-size="11" fill="#a8b8d4">VMs: 400-800 · 100-200 TB usable</text>
      <text x="20" y="216" font-family="JetBrains Mono, monospace" font-size="11" fill="#34d399">tiered DR · NearSync for tier-1</text>
    </g>

    <!-- Large -->
    <g transform="translate(820, 220)" filter="url(#purpleGlow)">
      <rect x="0" y="0" width="340" height="240" rx="10" fill="rgba(192,132,252,0.12)" stroke="#c084fc" stroke-width="1.6"/>
      <text x="20" y="34" font-size="14" font-weight="700" fill="#c084fc" letter-spacing="0.10em">03 · LARGE</text>
      <text x="20" y="60" font-size="13" fill="#e8f0ff">Enterprise · multi-cluster</text>
      <!-- Multiple cluster blocks -->
      <g transform="translate(20, 86)">
        <rect x="0"   y="0" width="60" height="48" rx="3" fill="rgba(0,212,255,0.22)" stroke="#00d4ff" stroke-width="1.2"/>
        <text x="30" y="30" text-anchor="middle" font-family="JetBrains Mono, monospace" font-size="9" fill="#e8f0ff">VM</text>
        <rect x="68"  y="0" width="60" height="48" rx="3" fill="rgba(74,158,255,0.22)" stroke="#4a9eff" stroke-width="1.2"/>
        <text x="98" y="30" text-anchor="middle" font-family="JetBrains Mono, monospace" font-size="9" fill="#e8f0ff">DB</text>
        <rect x="136" y="0" width="60" height="48" rx="3" fill="rgba(168,85,247,0.22)" stroke="#c084fc" stroke-width="1.2"/>
        <text x="166" y="30" text-anchor="middle" font-family="JetBrains Mono, monospace" font-size="9" fill="#e8f0ff">VDI</text>
        <rect x="204" y="0" width="60" height="48" rx="3" fill="rgba(52,211,153,0.22)" stroke="#34d399" stroke-width="1.2"/>
        <text x="234" y="30" text-anchor="middle" font-family="JetBrains Mono, monospace" font-size="9" fill="#e8f0ff">Files</text>
        <rect x="272" y="0" width="42" height="48" rx="3" fill="rgba(251,191,36,0.22)" stroke="#fbbf24" stroke-width="1.2"/>
        <text x="293" y="30" text-anchor="middle" font-family="JetBrains Mono, monospace" font-size="9" fill="#e8f0ff">Obj</text>
      </g>
      <text x="20" y="170" font-family="JetBrains Mono, monospace" font-size="11" fill="#a8b8d4">workload-aligned clusters</text>
      <text x="20" y="190" font-family="JetBrains Mono, monospace" font-size="11" fill="#a8b8d4">VMs: 1.5K-5K+ · 500 TB-2 PB</text>
      <text x="20" y="216" font-family="JetBrains Mono, monospace" font-size="11" fill="#34d399">NCI Ultimate · Metro · NC2 opt</text>
    </g>

    <!-- VDI -->
    <g transform="translate(1190, 220)" filter="url(#purpleGlow)">
      <rect x="0" y="0" width="340" height="240" rx="10" fill="rgba(192,132,252,0.12)" stroke="#c084fc" stroke-width="1.6"/>
      <text x="20" y="34" font-size="14" font-weight="700" fill="#c084fc" letter-spacing="0.10em">04 · VDI</text>
      <text x="20" y="60" font-size="13" fill="#e8f0ff">Citrix CVAD · Horizon · 1K-3K sessions</text>
      <!-- Sessions visualization: dots in a grid -->
      <g transform="translate(20, 92)">
        <g fill="#00d4ff" opacity="0.85">
          <circle cx="0"   cy="0" r="2"/><circle cx="10"  cy="0" r="2"/><circle cx="20"  cy="0" r="2"/><circle cx="30"  cy="0" r="2"/><circle cx="40"  cy="0" r="2"/><circle cx="50"  cy="0" r="2"/><circle cx="60"  cy="0" r="2"/><circle cx="70"  cy="0" r="2"/><circle cx="80"  cy="0" r="2"/><circle cx="90"  cy="0" r="2"/><circle cx="100" cy="0" r="2"/><circle cx="110" cy="0" r="2"/><circle cx="120" cy="0" r="2"/><circle cx="130" cy="0" r="2"/><circle cx="140" cy="0" r="2"/><circle cx="150" cy="0" r="2"/><circle cx="160" cy="0" r="2"/><circle cx="170" cy="0" r="2"/><circle cx="180" cy="0" r="2"/><circle cx="190" cy="0" r="2"/><circle cx="200" cy="0" r="2"/><circle cx="210" cy="0" r="2"/><circle cx="220" cy="0" r="2"/><circle cx="230" cy="0" r="2"/><circle cx="240" cy="0" r="2"/><circle cx="250" cy="0" r="2"/><circle cx="260" cy="0" r="2"/><circle cx="270" cy="0" r="2"/><circle cx="280" cy="0" r="2"/><circle cx="290" cy="0" r="2"/>
          <circle cx="0"   cy="10" r="2"/><circle cx="10"  cy="10" r="2"/><circle cx="20"  cy="10" r="2"/><circle cx="30"  cy="10" r="2"/><circle cx="40"  cy="10" r="2"/><circle cx="50"  cy="10" r="2"/><circle cx="60"  cy="10" r="2"/><circle cx="70"  cy="10" r="2"/><circle cx="80"  cy="10" r="2"/><circle cx="90"  cy="10" r="2"/><circle cx="100" cy="10" r="2"/><circle cx="110" cy="10" r="2"/><circle cx="120" cy="10" r="2"/><circle cx="130" cy="10" r="2"/><circle cx="140" cy="10" r="2"/><circle cx="150" cy="10" r="2"/><circle cx="160" cy="10" r="2"/><circle cx="170" cy="10" r="2"/><circle cx="180" cy="10" r="2"/><circle cx="190" cy="10" r="2"/><circle cx="200" cy="10" r="2"/><circle cx="210" cy="10" r="2"/><circle cx="220" cy="10" r="2"/><circle cx="230" cy="10" r="2"/><circle cx="240" cy="10" r="2"/><circle cx="250" cy="10" r="2"/><circle cx="260" cy="10" r="2"/><circle cx="270" cy="10" r="2"/><circle cx="280" cy="10" r="2"/><circle cx="290" cy="10" r="2"/>
          <circle cx="0"   cy="20" r="2"/><circle cx="10"  cy="20" r="2"/><circle cx="20"  cy="20" r="2"/><circle cx="30"  cy="20" r="2"/><circle cx="40"  cy="20" r="2"/><circle cx="50"  cy="20" r="2"/><circle cx="60"  cy="20" r="2"/><circle cx="70"  cy="20" r="2"/><circle cx="80"  cy="20" r="2"/><circle cx="90"  cy="20" r="2"/><circle cx="100" cy="20" r="2"/><circle cx="110" cy="20" r="2"/><circle cx="120" cy="20" r="2"/><circle cx="130" cy="20" r="2"/><circle cx="140" cy="20" r="2"/><circle cx="150" cy="20" r="2"/><circle cx="160" cy="20" r="2"/><circle cx="170" cy="20" r="2"/><circle cx="180" cy="20" r="2"/><circle cx="190" cy="20" r="2"/><circle cx="200" cy="20" r="2"/><circle cx="210" cy="20" r="2"/><circle cx="220" cy="20" r="2"/><circle cx="230" cy="20" r="2"/><circle cx="240" cy="20" r="2"/><circle cx="250" cy="20" r="2"/><circle cx="260" cy="20" r="2"/><circle cx="270" cy="20" r="2"/><circle cx="280" cy="20" r="2"/><circle cx="290" cy="20" r="2"/>
          <circle cx="0"   cy="30" r="2"/><circle cx="10"  cy="30" r="2"/><circle cx="20"  cy="30" r="2"/><circle cx="30"  cy="30" r="2"/><circle cx="40"  cy="30" r="2"/><circle cx="50"  cy="30" r="2"/><circle cx="60"  cy="30" r="2"/><circle cx="70"  cy="30" r="2"/><circle cx="80"  cy="30" r="2"/><circle cx="90"  cy="30" r="2"/><circle cx="100" cy="30" r="2"/><circle cx="110" cy="30" r="2"/><circle cx="120" cy="30" r="2"/><circle cx="130" cy="30" r="2"/><circle cx="140" cy="30" r="2"/><circle cx="150" cy="30" r="2"/><circle cx="160" cy="30" r="2"/><circle cx="170" cy="30" r="2"/><circle cx="180" cy="30" r="2"/><circle cx="190" cy="30" r="2"/><circle cx="200" cy="30" r="2"/><circle cx="210" cy="30" r="2"/><circle cx="220" cy="30" r="2"/><circle cx="230" cy="30" r="2"/><circle cx="240" cy="30" r="2"/><circle cx="250" cy="30" r="2"/><circle cx="260" cy="30" r="2"/><circle cx="270" cy="30" r="2"/><circle cx="280" cy="30" r="2"/><circle cx="290" cy="30" r="2"/>
        </g>
      </g>
      <text x="20" y="170" font-family="JetBrains Mono, monospace" font-size="11" fill="#a8b8d4">12-24 nodes · all-NVMe required</text>
      <text x="20" y="190" font-family="JetBrains Mono, monospace" font-size="11" fill="#a8b8d4">on-disk dedup 2-3x · boot storm OK</text>
      <text x="20" y="216" font-family="JetBrains Mono, monospace" font-size="11" fill="#34d399">AHV native · NCI Pro · 25/100 GbE</text>
    </g>

    <!-- Bottom row: Hybrid+NC2, ROBO, Greenfield, Compliance -->

    <!-- Hybrid + NC2 -->
    <g transform="translate(80, 500)" filter="url(#purpleGlow)">
      <rect x="0" y="0" width="340" height="240" rx="10" fill="rgba(192,132,252,0.12)" stroke="#c084fc" stroke-width="1.6"/>
      <text x="20" y="34" font-size="14" font-weight="700" fill="#c084fc" letter-spacing="0.10em">05 · HYBRID + NC2</text>
      <text x="20" y="60" font-size="13" fill="#e8f0ff">on-prem + cloud-extended DR</text>
      <!-- On-prem cluster + cloud cluster connected -->
      <g transform="translate(20, 90)">
        <rect x="0" y="0" width="100" height="56" rx="4" fill="rgba(0,212,255,0.20)" stroke="#00d4ff" stroke-width="1.4"/>
        <text x="50" y="22" text-anchor="middle" font-family="JetBrains Mono, monospace" font-size="10" font-weight="600" fill="#e8f0ff">on-prem</text>
        <text x="50" y="40" text-anchor="middle" font-family="JetBrains Mono, monospace" font-size="9" fill="#a8b8d4">primary</text>
        <line x1="106" y1="28" x2="194" y2="28" stroke="#c084fc" stroke-width="1.4" stroke-dasharray="4 4"/>
        <text x="150" y="20" text-anchor="middle" font-family="JetBrains Mono, monospace" font-size="9" fill="#c084fc">replication</text>
        <rect x="200" y="0" width="100" height="56" rx="4" fill="rgba(192,132,252,0.20)" stroke="#c084fc" stroke-width="1.4"/>
        <text x="250" y="22" text-anchor="middle" font-family="JetBrains Mono, monospace" font-size="10" font-weight="600" fill="#e8f0ff">NC2</text>
        <text x="250" y="40" text-anchor="middle" font-family="JetBrains Mono, monospace" font-size="9" fill="#a8b8d4">AWS / Azure</text>
      </g>
      <text x="20" y="172" font-family="JetBrains Mono, monospace" font-size="11" fill="#a8b8d4">Direct Connect / ExpressRoute</text>
      <text x="20" y="192" font-family="JetBrains Mono, monospace" font-size="11" fill="#a8b8d4">hibernate · scale at failover</text>
      <text x="20" y="216" font-family="JetBrains Mono, monospace" font-size="11" fill="#34d399">platform parity · runbook reuse</text>
    </g>

    <!-- ROBO Fleet -->
    <g transform="translate(450, 500)" filter="url(#purpleGlow)">
      <rect x="0" y="0" width="340" height="240" rx="10" fill="rgba(192,132,252,0.12)" stroke="#c084fc" stroke-width="1.6"/>
      <text x="20" y="34" font-size="14" font-weight="700" fill="#c084fc" letter-spacing="0.10em">06 · ROBO FLEET</text>
      <text x="20" y="60" font-size="13" fill="#e8f0ff">50-1000+ sites · central PC</text>
      <!-- Central + many small dots -->
      <g transform="translate(150, 92)">
        <rect x="-22" y="-12" width="44" height="24" rx="3" fill="rgba(0,212,255,0.20)" stroke="#00d4ff" stroke-width="1.2"/>
        <text x="0" y="4" text-anchor="middle" font-family="JetBrains Mono, monospace" font-size="9" font-weight="600" fill="#e8f0ff">central PC</text>
      </g>
      <g stroke="rgba(192,132,252,0.30)" stroke-width="0.8" stroke-dasharray="2 3" fill="none">
        <line x1="170" y1="98" x2="60"  y2="170"/>
        <line x1="170" y1="98" x2="100" y2="180"/>
        <line x1="170" y1="98" x2="140" y2="190"/>
        <line x1="170" y1="98" x2="180" y2="190"/>
        <line x1="170" y1="98" x2="220" y2="180"/>
        <line x1="170" y1="98" x2="260" y2="170"/>
        <line x1="170" y1="98" x2="300" y2="160"/>
      </g>
      <g fill="rgba(52,211,153,0.20)" stroke="#34d399" stroke-width="0.8">
        <circle cx="60"  cy="170" r="6"/>
        <circle cx="100" cy="180" r="6"/>
        <circle cx="140" cy="190" r="6"/>
        <circle cx="180" cy="190" r="6"/>
        <circle cx="220" cy="180" r="6"/>
        <circle cx="260" cy="170" r="6"/>
        <circle cx="300" cy="160" r="6"/>
      </g>
      <text x="20" y="172" font-family="JetBrains Mono, monospace" font-size="11" fill="#a8b8d4">1-2 node per site · ruggedized OK</text>
      <text x="20" y="192" font-family="JetBrains Mono, monospace" font-size="11" fill="#a8b8d4">Categories: Site:Store-NNN</text>
      <text x="20" y="216" font-family="JetBrains Mono, monospace" font-size="11" fill="#34d399">fleet policy · WAN-aware backup</text>
    </g>

    <!-- Greenfield -->
    <g transform="translate(820, 500)" filter="url(#purpleGlow)">
      <rect x="0" y="0" width="340" height="240" rx="10" fill="rgba(192,132,252,0.12)" stroke="#c084fc" stroke-width="1.6"/>
      <text x="20" y="34" font-size="14" font-weight="700" fill="#c084fc" letter-spacing="0.10em">07 · GREENFIELD</text>
      <text x="20" y="60" font-size="13" fill="#e8f0ff">new company · hybrid-cloud-native</text>
      <g transform="translate(20, 90)">
        <rect x="0"  y="0" width="40" height="56" rx="3" fill="rgba(0,212,255,0.18)" stroke="#00d4ff" stroke-width="1"/>
        <rect x="46" y="0" width="40" height="56" rx="3" fill="rgba(0,212,255,0.18)" stroke="#00d4ff" stroke-width="1"/>
        <rect x="92" y="0" width="40" height="56" rx="3" fill="rgba(0,212,255,0.18)" stroke="#00d4ff" stroke-width="1"/>
        <rect x="138" y="0" width="40" height="56" rx="3" fill="rgba(0,212,255,0.18)" stroke="#00d4ff" stroke-width="1"/>
        <text x="200" y="32" font-family="JetBrains Mono, monospace" font-size="13" fill="#c084fc">+</text>
        <rect x="220" y="0" width="80" height="56" rx="3" fill="rgba(74,158,255,0.18)" stroke="#4a9eff" stroke-width="1" stroke-dasharray="3 3"/>
        <text x="260" y="34" text-anchor="middle" font-family="JetBrains Mono, monospace" font-size="10" font-weight="600" fill="#e8f0ff">cloud</text>
      </g>
      <text x="20" y="172" font-family="JetBrains Mono, monospace" font-size="11" fill="#a8b8d4">4 nodes initial · scale by adding</text>
      <text x="20" y="192" font-family="JetBrains Mono, monospace" font-size="11" fill="#a8b8d4">3-yr term · cloud burst elasticity</text>
      <text x="20" y="216" font-family="JetBrains Mono, monospace" font-size="11" fill="#34d399">cost-flex · no second DC</text>
    </g>

    <!-- Compliance -->
    <g transform="translate(1190, 500)" filter="url(#purpleGlow)">
      <rect x="0" y="0" width="340" height="240" rx="10" fill="rgba(192,132,252,0.12)" stroke="#c084fc" stroke-width="1.6"/>
      <text x="20" y="34" font-size="14" font-weight="700" fill="#c084fc" letter-spacing="0.10em">08 · COMPLIANCE</text>
      <text x="20" y="60" font-size="13" fill="#e8f0ff">PCI · HIPAA · FedRAMP · SOX</text>
      <!-- Vault icon + cluster -->
      <g transform="translate(20, 90)">
        <!-- HSM lock icon -->
        <rect x="0" y="8" width="44" height="36" rx="4" fill="rgba(251,191,36,0.16)" stroke="#fbbf24" stroke-width="1.4"/>
        <path d="M10,8 V2 a12,12 0 0 1 24,0 V8" fill="none" stroke="#fbbf24" stroke-width="1.4"/>
        <text x="22" y="32" text-anchor="middle" font-family="JetBrains Mono, monospace" font-size="10" font-weight="700" fill="#fbbf24">HSM</text>
        <!-- Cluster -->
        <g transform="translate(60, 0)">
          <rect x="0"  y="0" width="32" height="56" rx="3" fill="rgba(0,212,255,0.18)" stroke="#00d4ff" stroke-width="1"/>
          <rect x="38" y="0" width="32" height="56" rx="3" fill="rgba(0,212,255,0.18)" stroke="#00d4ff" stroke-width="1"/>
          <rect x="76" y="0" width="32" height="56" rx="3" fill="rgba(0,212,255,0.18)" stroke="#00d4ff" stroke-width="1"/>
          <rect x="114" y="0" width="32" height="56" rx="3" fill="rgba(0,212,255,0.18)" stroke="#00d4ff" stroke-width="1"/>
        </g>
        <!-- WORM bucket -->
        <g transform="translate(218, 6)">
          <rect x="0" y="0" width="60" height="42" rx="4" fill="rgba(192,132,252,0.18)" stroke="#c084fc" stroke-width="1.2"/>
          <text x="30" y="17" text-anchor="middle" font-family="JetBrains Mono, monospace" font-size="9" fill="#e8f0ff">WORM</text>
          <text x="30" y="32" text-anchor="middle" font-family="JetBrains Mono, monospace" font-size="9" fill="#a8b8d4">archive</text>
        </g>
      </g>
      <text x="20" y="172" font-family="JetBrains Mono, monospace" font-size="11" fill="#a8b8d4">RF3 · Metro · default-deny Flow</text>
      <text x="20" y="192" font-family="JetBrains Mono, monospace" font-size="11" fill="#a8b8d4">SAML · MFA · JIT · audit retention</text>
      <text x="20" y="216" font-family="JetBrains Mono, monospace" font-size="11" fill="#34d399">NCI Ultimate · NCM Ultimate</text>
    </g>
  </g>

  <!-- Bottom: three principles strip -->
  <g transform="translate(120, 800)">
    <text x="680" y="0" text-anchor="middle" font-family="JetBrains Mono, monospace" font-size="11" font-weight="700" fill="#c084fc" letter-spacing="0.10em">THREE PRINCIPLES</text>
    <text x="680" y="20" text-anchor="middle" font-family="JetBrains Mono, monospace" font-size="11" fill="#cfeeff">starting points · run Sizer for binding numbers · name the trade-offs</text>
  </g>

  <radialGradient id="vignette" cx="50%" cy="50%" r="78%">
    <stop offset="60%" stop-color="rgba(0,0,0,0)"/>
    <stop offset="100%" stop-color="rgba(0,0,0,0.55)"/>
  </radialGradient>
  <rect width="1600" height="900" fill="url(#vignette)"/>
</svg>
