<?xml version="1.0" encoding="UTF-8"?>
<svg xmlns="http://www.w3.org/2000/svg" viewBox="0 0 1600 900" preserveAspectRatio="xMidYMid slice" role="img" aria-labelledby="m7-title m7-desc">
  <title id="m7-title">Module 7 hero: Metro pair plus remote async DR with witness</title>
  <desc id="m7-desc">Two clusters tightly coupled in a metro pair under a synchronous Metro link, plus a third remote cluster reached by dashed Async and dotted NearSync arcs over WAN, with a Witness VM glyph at the third site providing quorum.</desc>

  <defs>
    <radialGradient id="bgRad" cx="55%" cy="42%" r="80%">
      <stop offset="0%" stop-color="#143664"/>
      <stop offset="55%" stop-color="#0c1f3a"/>
      <stop offset="100%" stop-color="#070f1c"/>
    </radialGradient>

    <linearGradient id="floor" x1="0" y1="0" x2="0" y2="1">
      <stop offset="0%" stop-color="rgba(74,158,255,0.0)"/>
      <stop offset="100%" stop-color="rgba(74,158,255,0.18)"/>
    </linearGradient>

    <linearGradient id="cubeFront" x1="0" y1="0" x2="0" y2="1">
      <stop offset="0%" stop-color="#1a3258"/>
      <stop offset="100%" stop-color="#0f2440"/>
    </linearGradient>
    <linearGradient id="cubeTop" x1="0" y1="0" x2="0" y2="1">
      <stop offset="0%" stop-color="#244a82"/>
      <stop offset="100%" stop-color="#173461"/>
    </linearGradient>
    <linearGradient id="cubeSide" x1="0" y1="0" x2="1" y2="0">
      <stop offset="0%" stop-color="#0d2244"/>
      <stop offset="100%" stop-color="#1c3e6f"/>
    </linearGradient>

    <linearGradient id="cvmGrad" x1="0" y1="0" x2="0" y2="1">
      <stop offset="0%" stop-color="#c8552d"/>
      <stop offset="100%" stop-color="#7a2e15"/>
    </linearGradient>

    <linearGradient id="metroPulse" x1="0" y1="0" x2="1" y2="0">
      <stop offset="0%" stop-color="#34d399" stop-opacity="0"/>
      <stop offset="50%" stop-color="#34d399" stop-opacity="1"/>
      <stop offset="100%" stop-color="#34d399" stop-opacity="0"/>
    </linearGradient>

    <filter id="cyanGlow" x="-20%" y="-20%" width="140%" height="140%">
      <feGaussianBlur stdDeviation="6" result="b"/>
      <feMerge><feMergeNode in="b"/><feMergeNode in="SourceGraphic"/></feMerge>
    </filter>
    <filter id="softGlow" x="-30%" y="-30%" width="160%" height="160%">
      <feGaussianBlur stdDeviation="10"/>
    </filter>

    <marker id="arrowAsync" viewBox="0 0 12 12" refX="10" refY="6" markerWidth="10" markerHeight="10" orient="auto-start-reverse">
      <path d="M0,0 L12,6 L0,12 Z" fill="#fbbf24"/>
    </marker>
    <marker id="arrowNear" viewBox="0 0 12 12" refX="10" refY="6" markerWidth="10" markerHeight="10" orient="auto-start-reverse">
      <path d="M0,0 L12,6 L0,12 Z" fill="#00d4ff"/>
    </marker>
    <marker id="arrowMetro" viewBox="0 0 12 12" refX="10" refY="6" markerWidth="10" markerHeight="10" orient="auto-start-reverse">
      <path d="M0,0 L12,6 L0,12 Z" fill="#34d399"/>
    </marker>
  </defs>

  <rect width="1600" height="900" fill="url(#bgRad)"/>

  <!-- subtle grid floor lines -->
  <g stroke="rgba(74,158,255,0.08)" stroke-width="1" fill="none">
    <path d="M0,720 L1600,720"/>
    <path d="M0,760 L1600,760"/>
    <path d="M0,800 L1600,800"/>
  </g>

  <!-- mono path treatment top-left -->
  <text x="60" y="64" font-family="JetBrains Mono, ui-monospace, monospace" font-size="15" letter-spacing="0.04em" fill="#a8b8d4">
    <tspan fill="#00d4ff">/</tspan>nix<tspan fill="#00d4ff">/</tspan>nutanix<tspan fill="#00d4ff">/</tspan>07
  </text>
  <text x="60" y="86" font-family="JetBrains Mono, ui-monospace, monospace" font-size="11" letter-spacing="0.10em" fill="#6b7a9a" opacity="0.85">DATA PROTECTION · METRO · NEARSYNC · ASYNC</text>

  <!-- ============================================================ -->
  <!-- SITE A (left): metro primary                                 -->
  <!-- ============================================================ -->
  <g transform="translate(220, 340)">
    <text x="0" y="-30" font-family="JetBrains Mono, monospace" font-size="13" font-weight="600" letter-spacing="0.06em" fill="#e8f0ff">SITE A · DATACENTER 1</text>
    <text x="0" y="-12" font-family="JetBrains Mono, monospace" font-size="11" letter-spacing="0.06em" fill="#a8b8d4">PRIMARY · METRO PAIR</text>

    <!-- 3-node cluster row (isometric-ish) -->
    <g>
      <!-- Node 1 -->
      <g transform="translate(0,0)">
        <rect x="0" y="40" width="120" height="80" fill="url(#cubeFront)" stroke="#3a6cb0" stroke-width="1.2"/>
        <polygon points="0,40 30,20 150,20 120,40" fill="url(#cubeTop)" stroke="#3a6cb0" stroke-width="1.2"/>
        <polygon points="120,40 150,20 150,100 120,120" fill="url(#cubeSide)" stroke="#3a6cb0" stroke-width="1.2"/>
        <!-- CVM band on top -->
        <rect x="14" y="50" width="92" height="14" fill="url(#cvmGrad)" stroke="#a04020" stroke-width="0.8"/>
        <text x="60" y="60" text-anchor="middle" font-family="JetBrains Mono, monospace" font-size="9" fill="#fff" letter-spacing="0.10em">CVM</text>
        <!-- disk slots -->
        <g fill="#0a1628" stroke="#1f3a66" stroke-width="0.8">
          <rect x="14" y="74" width="92" height="6"/>
          <rect x="14" y="84" width="92" height="6"/>
          <rect x="14" y="94" width="92" height="6"/>
          <rect x="14" y="104" width="92" height="6"/>
        </g>
        <!-- ssd indicator -->
        <rect x="14" y="74" width="40" height="6" fill="#00d4ff" opacity="0.55"/>
      </g>
      <!-- Node 2 -->
      <g transform="translate(140,0)">
        <rect x="0" y="40" width="120" height="80" fill="url(#cubeFront)" stroke="#3a6cb0" stroke-width="1.2"/>
        <polygon points="0,40 30,20 150,20 120,40" fill="url(#cubeTop)" stroke="#3a6cb0" stroke-width="1.2"/>
        <polygon points="120,40 150,20 150,100 120,120" fill="url(#cubeSide)" stroke="#3a6cb0" stroke-width="1.2"/>
        <rect x="14" y="50" width="92" height="14" fill="url(#cvmGrad)" stroke="#a04020" stroke-width="0.8"/>
        <text x="60" y="60" text-anchor="middle" font-family="JetBrains Mono, monospace" font-size="9" fill="#fff" letter-spacing="0.10em">CVM</text>
        <g fill="#0a1628" stroke="#1f3a66" stroke-width="0.8">
          <rect x="14" y="74" width="92" height="6"/>
          <rect x="14" y="84" width="92" height="6"/>
          <rect x="14" y="94" width="92" height="6"/>
          <rect x="14" y="104" width="92" height="6"/>
        </g>
        <rect x="14" y="74" width="56" height="6" fill="#00d4ff" opacity="0.55"/>
      </g>
      <!-- Node 3 -->
      <g transform="translate(280,0)">
        <rect x="0" y="40" width="120" height="80" fill="url(#cubeFront)" stroke="#3a6cb0" stroke-width="1.2"/>
        <polygon points="0,40 30,20 150,20 120,40" fill="url(#cubeTop)" stroke="#3a6cb0" stroke-width="1.2"/>
        <polygon points="120,40 150,20 150,100 120,120" fill="url(#cubeSide)" stroke="#3a6cb0" stroke-width="1.2"/>
        <rect x="14" y="50" width="92" height="14" fill="url(#cvmGrad)" stroke="#a04020" stroke-width="0.8"/>
        <text x="60" y="60" text-anchor="middle" font-family="JetBrains Mono, monospace" font-size="9" fill="#fff" letter-spacing="0.10em">CVM</text>
        <g fill="#0a1628" stroke="#1f3a66" stroke-width="0.8">
          <rect x="14" y="74" width="92" height="6"/>
          <rect x="14" y="84" width="92" height="6"/>
          <rect x="14" y="94" width="92" height="6"/>
          <rect x="14" y="104" width="92" height="6"/>
        </g>
        <rect x="14" y="74" width="32" height="6" fill="#00d4ff" opacity="0.55"/>
      </g>
    </g>

    <!-- VM stack on top -->
    <g transform="translate(60,-90)">
      <rect x="0" y="0" width="320" height="46" fill="rgba(251,191,36,0.10)" stroke="#fbbf24" stroke-width="1" stroke-dasharray="4 3"/>
      <text x="160" y="20" text-anchor="middle" font-family="Inter, sans-serif" font-size="12" font-weight="600" fill="#fbbf24" letter-spacing="0.06em">PROTECTED VMs · CATEGORY: TIER-0</text>
      <text x="160" y="36" text-anchor="middle" font-family="JetBrains Mono, monospace" font-size="10" fill="#a8b8d4">RPO 0 · MISSION-CRITICAL</text>
    </g>

    <!-- floor shadow -->
    <ellipse cx="220" cy="180" rx="240" ry="22" fill="url(#floor)"/>
  </g>

  <!-- ============================================================ -->
  <!-- SITE B (center-right of metro pair): metro standby            -->
  <!-- ============================================================ -->
  <g transform="translate(820, 340)">
    <text x="0" y="-30" font-family="JetBrains Mono, monospace" font-size="13" font-weight="600" letter-spacing="0.06em" fill="#e8f0ff">SITE B · DATACENTER 2</text>
    <text x="0" y="-12" font-family="JetBrains Mono, monospace" font-size="11" letter-spacing="0.06em" fill="#a8b8d4">METRO PAIR · 50 km · ≤3.5 ms RTT</text>

    <g>
      <g transform="translate(0,0)">
        <rect x="0" y="40" width="120" height="80" fill="url(#cubeFront)" stroke="#3a6cb0" stroke-width="1.2"/>
        <polygon points="0,40 30,20 150,20 120,40" fill="url(#cubeTop)" stroke="#3a6cb0" stroke-width="1.2"/>
        <polygon points="120,40 150,20 150,100 120,120" fill="url(#cubeSide)" stroke="#3a6cb0" stroke-width="1.2"/>
        <rect x="14" y="50" width="92" height="14" fill="url(#cvmGrad)" stroke="#a04020" stroke-width="0.8"/>
        <text x="60" y="60" text-anchor="middle" font-family="JetBrains Mono, monospace" font-size="9" fill="#fff" letter-spacing="0.10em">CVM</text>
        <g fill="#0a1628" stroke="#1f3a66" stroke-width="0.8">
          <rect x="14" y="74" width="92" height="6"/><rect x="14" y="84" width="92" height="6"/>
          <rect x="14" y="94" width="92" height="6"/><rect x="14" y="104" width="92" height="6"/>
        </g>
        <rect x="14" y="74" width="40" height="6" fill="#00d4ff" opacity="0.55"/>
      </g>
      <g transform="translate(140,0)">
        <rect x="0" y="40" width="120" height="80" fill="url(#cubeFront)" stroke="#3a6cb0" stroke-width="1.2"/>
        <polygon points="0,40 30,20 150,20 120,40" fill="url(#cubeTop)" stroke="#3a6cb0" stroke-width="1.2"/>
        <polygon points="120,40 150,20 150,100 120,120" fill="url(#cubeSide)" stroke="#3a6cb0" stroke-width="1.2"/>
        <rect x="14" y="50" width="92" height="14" fill="url(#cvmGrad)" stroke="#a04020" stroke-width="0.8"/>
        <text x="60" y="60" text-anchor="middle" font-family="JetBrains Mono, monospace" font-size="9" fill="#fff" letter-spacing="0.10em">CVM</text>
        <g fill="#0a1628" stroke="#1f3a66" stroke-width="0.8">
          <rect x="14" y="74" width="92" height="6"/><rect x="14" y="84" width="92" height="6"/>
          <rect x="14" y="94" width="92" height="6"/><rect x="14" y="104" width="92" height="6"/>
        </g>
        <rect x="14" y="74" width="48" height="6" fill="#00d4ff" opacity="0.55"/>
      </g>
      <g transform="translate(280,0)">
        <rect x="0" y="40" width="120" height="80" fill="url(#cubeFront)" stroke="#3a6cb0" stroke-width="1.2"/>
        <polygon points="0,40 30,20 150,20 120,40" fill="url(#cubeTop)" stroke="#3a6cb0" stroke-width="1.2"/>
        <polygon points="120,40 150,20 150,100 120,120" fill="url(#cubeSide)" stroke="#3a6cb0" stroke-width="1.2"/>
        <rect x="14" y="50" width="92" height="14" fill="url(#cvmGrad)" stroke="#a04020" stroke-width="0.8"/>
        <text x="60" y="60" text-anchor="middle" font-family="JetBrains Mono, monospace" font-size="9" fill="#fff" letter-spacing="0.10em">CVM</text>
        <g fill="#0a1628" stroke="#1f3a66" stroke-width="0.8">
          <rect x="14" y="74" width="92" height="6"/><rect x="14" y="84" width="92" height="6"/>
          <rect x="14" y="94" width="92" height="6"/><rect x="14" y="104" width="92" height="6"/>
        </g>
        <rect x="14" y="74" width="36" height="6" fill="#00d4ff" opacity="0.55"/>
      </g>
    </g>

    <!-- VM stack on top -->
    <g transform="translate(60,-90)">
      <rect x="0" y="0" width="320" height="46" fill="rgba(52,211,153,0.10)" stroke="#34d399" stroke-width="1" stroke-dasharray="4 3"/>
      <text x="160" y="20" text-anchor="middle" font-family="Inter, sans-serif" font-size="12" font-weight="600" fill="#34d399" letter-spacing="0.06em">SYNCHRONOUS REPLICA · ZERO RPO</text>
      <text x="160" y="36" text-anchor="middle" font-family="JetBrains Mono, monospace" font-size="10" fill="#a8b8d4">EVERY WRITE ACK'D BOTH SIDES</text>
    </g>

    <ellipse cx="220" cy="180" rx="240" ry="22" fill="url(#floor)"/>
  </g>

  <!-- ============================================================ -->
  <!-- SITE C (far right): remote DR with NearSync + Async tiers     -->
  <!-- ============================================================ -->
  <g transform="translate(1300, 460)">
    <text x="0" y="-30" font-family="JetBrains Mono, monospace" font-size="13" font-weight="600" letter-spacing="0.06em" fill="#e8f0ff" text-anchor="end">SITE C · REMOTE DR</text>
    <text x="0" y="-12" font-family="JetBrains Mono, monospace" font-size="11" letter-spacing="0.06em" fill="#a8b8d4" text-anchor="end">800 km · WAN · 1 Gbps</text>

    <!-- compact 2-node remote cluster -->
    <g transform="translate(-260,0)">
      <g transform="translate(0,0)">
        <rect x="0" y="40" width="100" height="68" fill="url(#cubeFront)" stroke="#3a6cb0" stroke-width="1.2"/>
        <polygon points="0,40 24,22 124,22 100,40" fill="url(#cubeTop)" stroke="#3a6cb0" stroke-width="1.2"/>
        <polygon points="100,40 124,22 124,90 100,108" fill="url(#cubeSide)" stroke="#3a6cb0" stroke-width="1.2"/>
        <rect x="12" y="48" width="76" height="12" fill="url(#cvmGrad)" stroke="#a04020" stroke-width="0.8"/>
        <text x="50" y="57" text-anchor="middle" font-family="JetBrains Mono, monospace" font-size="8" fill="#fff" letter-spacing="0.10em">CVM</text>
        <g fill="#0a1628" stroke="#1f3a66" stroke-width="0.8">
          <rect x="12" y="68" width="76" height="5"/><rect x="12" y="76" width="76" height="5"/>
          <rect x="12" y="84" width="76" height="5"/><rect x="12" y="92" width="76" height="5"/>
        </g>
      </g>
      <g transform="translate(120,0)">
        <rect x="0" y="40" width="100" height="68" fill="url(#cubeFront)" stroke="#3a6cb0" stroke-width="1.2"/>
        <polygon points="0,40 24,22 124,22 100,40" fill="url(#cubeTop)" stroke="#3a6cb0" stroke-width="1.2"/>
        <polygon points="100,40 124,22 124,90 100,108" fill="url(#cubeSide)" stroke="#3a6cb0" stroke-width="1.2"/>
        <rect x="12" y="48" width="76" height="12" fill="url(#cvmGrad)" stroke="#a04020" stroke-width="0.8"/>
        <text x="50" y="57" text-anchor="middle" font-family="JetBrains Mono, monospace" font-size="8" fill="#fff" letter-spacing="0.10em">CVM</text>
        <g fill="#0a1628" stroke="#1f3a66" stroke-width="0.8">
          <rect x="12" y="68" width="76" height="5"/><rect x="12" y="76" width="76" height="5"/>
          <rect x="12" y="84" width="76" height="5"/><rect x="12" y="92" width="76" height="5"/>
        </g>
      </g>
    </g>

    <!-- NearSync + Async snapshot stack -->
    <g transform="translate(-260,-92)">
      <rect x="0" y="0" width="244" height="40" fill="rgba(0,212,255,0.10)" stroke="#00d4ff" stroke-width="1" stroke-dasharray="2 3"/>
      <text x="122" y="17" text-anchor="middle" font-family="Inter, sans-serif" font-size="11" font-weight="600" fill="#00d4ff" letter-spacing="0.06em">NEARSYNC · LWS · ≤15 min RPO</text>
      <text x="122" y="32" text-anchor="middle" font-family="JetBrains Mono, monospace" font-size="9" fill="#a8b8d4">TIER-1 DBs</text>
    </g>
    <g transform="translate(-260,-46)">
      <rect x="0" y="0" width="244" height="40" fill="rgba(251,191,36,0.10)" stroke="#fbbf24" stroke-width="1" stroke-dasharray="6 4"/>
      <text x="122" y="17" text-anchor="middle" font-family="Inter, sans-serif" font-size="11" font-weight="600" fill="#fbbf24" letter-spacing="0.06em">ASYNC · 1-4 hr RPO</text>
      <text x="122" y="32" text-anchor="middle" font-family="JetBrains Mono, monospace" font-size="9" fill="#a8b8d4">GENERAL-PURPOSE BULK</text>
    </g>

    <ellipse cx="-140" cy="160" rx="180" ry="18" fill="url(#floor)"/>
  </g>

  <!-- ============================================================ -->
  <!-- WITNESS VM (third site, top-right)                            -->
  <!-- ============================================================ -->
  <g transform="translate(1340, 180)">
    <circle cx="0" cy="0" r="60" fill="rgba(52,211,153,0.06)" filter="url(#softGlow)"/>
    <polygon points="-32,-24 32,-24 32,24 -32,24" fill="rgba(52,211,153,0.10)" stroke="#34d399" stroke-width="1.4"/>
    <text x="0" y="-2" text-anchor="middle" font-family="Inter, sans-serif" font-size="14" font-weight="700" fill="#34d399" letter-spacing="0.04em">WITNESS</text>
    <text x="0" y="14" text-anchor="middle" font-family="JetBrains Mono, monospace" font-size="9" fill="#a8b8d4" letter-spacing="0.10em">QUORUM · 3rd SITE</text>
  </g>

  <!-- ============================================================ -->
  <!-- METRO LINK (Site A <-> Site B): solid green pulse, sync       -->
  <!-- ============================================================ -->
  <g filter="url(#cyanGlow)">
    <path d="M 660 380 Q 820 320 940 380" stroke="#34d399" stroke-width="3.4" fill="none" stroke-linecap="round" marker-end="url(#arrowMetro)" marker-start="url(#arrowMetro)"/>
  </g>
  <g>
    <path d="M 660 380 Q 820 320 940 380" stroke="url(#metroPulse)" stroke-width="2" fill="none" stroke-linecap="round"/>
    <text x="800" y="318" text-anchor="middle" font-family="JetBrains Mono, monospace" font-size="12" font-weight="600" fill="#34d399" letter-spacing="0.08em">METRO · SYNC · RPO 0</text>
    <text x="800" y="335" text-anchor="middle" font-family="JetBrains Mono, monospace" font-size="10" fill="#a8b8d4">≤5 ms RTT · ACK BOTH SIDES</text>
  </g>

  <!-- WITNESS lines to A and B -->
  <g stroke="#34d399" stroke-width="1" fill="none" stroke-dasharray="2 4" opacity="0.55">
    <path d="M 1310 200 L 460 360"/>
    <path d="M 1310 200 L 1060 360"/>
  </g>

  <!-- ============================================================ -->
  <!-- NEARSYNC (Site B -> Site C): dotted cyan, ~ near-continuous  -->
  <!-- ============================================================ -->
  <g>
    <path d="M 1240 420 Q 1180 460 1080 480" stroke="#00d4ff" stroke-width="2.4" fill="none" stroke-dasharray="2 5" stroke-linecap="round" marker-end="url(#arrowNear)"/>
    <text x="1180" y="446" text-anchor="middle" font-family="JetBrains Mono, monospace" font-size="11" font-weight="600" fill="#00d4ff" letter-spacing="0.06em">NEARSYNC · LWS</text>
  </g>

  <!-- ============================================================ -->
  <!-- ASYNC (Site A -> Site C): long dashed gold                    -->
  <!-- ============================================================ -->
  <g>
    <path d="M 470 460 Q 800 600 1080 510" stroke="#fbbf24" stroke-width="2.2" fill="none" stroke-dasharray="9 7" stroke-linecap="round" marker-end="url(#arrowAsync)"/>
    <text x="780" y="588" text-anchor="middle" font-family="JetBrains Mono, monospace" font-size="11" font-weight="600" fill="#fbbf24" letter-spacing="0.06em">ASYNC · DELTA SNAPSHOTS · WAN</text>
  </g>

  <!-- floating snapshot capsules along arcs -->
  <g>
    <!-- on async arc -->
    <ellipse cx="640" cy="540" rx="14" ry="9" fill="rgba(251,191,36,0.20)" stroke="#fbbf24" stroke-width="1"/>
    <ellipse cx="900" cy="588" rx="14" ry="9" fill="rgba(251,191,36,0.20)" stroke="#fbbf24" stroke-width="1"/>
    <!-- on nearsync arc -->
    <circle cx="1160" cy="465" r="5" fill="#00d4ff" opacity="0.85"/>
    <circle cx="1130" cy="471" r="4" fill="#00d4ff" opacity="0.7"/>
    <circle cx="1100" cy="476" r="3" fill="#00d4ff" opacity="0.55"/>
  </g>

  <!-- legend bottom-left -->
  <g transform="translate(60, 800)">
    <text x="0" y="0" font-family="Inter, sans-serif" font-size="13" font-weight="700" fill="#e8f0ff" letter-spacing="0.10em">REPLICATION TIERS</text>
    <g transform="translate(0,18)">
      <line x1="0" y1="6" x2="40" y2="6" stroke="#34d399" stroke-width="2.6"/>
      <text x="50" y="10" font-family="JetBrains Mono, monospace" font-size="11" fill="#a8b8d4">METRO · sync · RPO 0 · &lt;5 ms RTT</text>
    </g>
    <g transform="translate(0,38)">
      <line x1="0" y1="6" x2="40" y2="6" stroke="#00d4ff" stroke-width="2.4" stroke-dasharray="2 5"/>
      <text x="50" y="10" font-family="JetBrains Mono, monospace" font-size="11" fill="#a8b8d4">NEARSYNC · LWS · 20 s – 15 min RPO</text>
    </g>
    <g transform="translate(0,58)">
      <line x1="0" y1="6" x2="40" y2="6" stroke="#fbbf24" stroke-width="2.2" stroke-dasharray="9 7"/>
      <text x="50" y="10" font-family="JetBrains Mono, monospace" font-size="11" fill="#a8b8d4">ASYNC · delta snapshots · 1–4 hr RPO</text>
    </g>
  </g>

  <!-- subtle vignette -->
  <radialGradient id="vignette" cx="50%" cy="50%" r="75%">
    <stop offset="60%" stop-color="rgba(0,0,0,0)"/>
    <stop offset="100%" stop-color="rgba(0,0,0,0.55)"/>
  </radialGradient>
  <rect width="1600" height="900" fill="url(#vignette)"/>
</svg>
