<?xml version="1.0" encoding="UTF-8"?>
<svg xmlns="http://www.w3.org/2000/svg" viewBox="0 0 1600 900" preserveAspectRatio="xMidYMid slice" role="img" aria-labelledby="m10-title m10-desc">
  <title id="m10-title">Module 10 hero: VMware-to-Nutanix migration path</title>
  <desc id="m10-desc">A source vSphere cluster on the left and a target Nutanix cluster on the right, joined by a glowing Move appliance arrow carrying VM glyphs across the gap, with a 7-phase timeline ribbon underneath spanning Discovery, Platform Build, Pilot Wave, Production Wave 1 (low-tier), Wave 2 (Tier-1), Wave 3 (mission-critical), and Stabilization, plus a parallel-running overlap band annotation.</desc>

  <defs>
    <radialGradient id="bgRad" cx="50%" cy="40%" r="80%">
      <stop offset="0%" stop-color="#143664"/>
      <stop offset="55%" stop-color="#0c1f3a"/>
      <stop offset="100%" stop-color="#070f1c"/>
    </radialGradient>

    <linearGradient id="cubeFront" x1="0" y1="0" x2="0" y2="1">
      <stop offset="0%" stop-color="#1a3258"/>
      <stop offset="100%" stop-color="#0f2440"/>
    </linearGradient>
    <linearGradient id="cubeTop" x1="0" y1="0" x2="0" y2="1">
      <stop offset="0%" stop-color="#244a82"/>
      <stop offset="100%" stop-color="#173461"/>
    </linearGradient>
    <linearGradient id="cubeSide" x1="0" y1="0" x2="1" y2="0">
      <stop offset="0%" stop-color="#0d2244"/>
      <stop offset="100%" stop-color="#1c3e6f"/>
    </linearGradient>

    <linearGradient id="cvmGrad" x1="0" y1="0" x2="0" y2="1">
      <stop offset="0%" stop-color="#c8552d"/>
      <stop offset="100%" stop-color="#7a2e15"/>
    </linearGradient>

    <linearGradient id="esxiBand" x1="0" y1="0" x2="0" y2="1">
      <stop offset="0%" stop-color="#4a9eff"/>
      <stop offset="100%" stop-color="#1c3e6f"/>
    </linearGradient>

    <linearGradient id="movePulse" x1="0" y1="0" x2="1" y2="0">
      <stop offset="0%" stop-color="rgba(0,212,255,0.0)"/>
      <stop offset="50%" stop-color="rgba(0,212,255,1.0)"/>
      <stop offset="100%" stop-color="rgba(0,212,255,0.0)"/>
    </linearGradient>

    <linearGradient id="floor" x1="0" y1="0" x2="0" y2="1">
      <stop offset="0%" stop-color="rgba(74,158,255,0.0)"/>
      <stop offset="100%" stop-color="rgba(74,158,255,0.18)"/>
    </linearGradient>

    <filter id="cyanGlow" x="-30%" y="-30%" width="160%" height="160%">
      <feGaussianBlur stdDeviation="6" result="b"/>
      <feMerge><feMergeNode in="b"/><feMergeNode in="SourceGraphic"/></feMerge>
    </filter>

    <marker id="arrowMove" viewBox="0 0 14 14" refX="11" refY="7" markerWidth="11" markerHeight="11" orient="auto-start-reverse">
      <path d="M0,0 L14,7 L0,14 Z" fill="#00d4ff"/>
    </marker>
  </defs>

  <rect width="1600" height="900" fill="url(#bgRad)"/>

  <!-- subtle grid floor lines -->
  <g stroke="rgba(74,158,255,0.08)" stroke-width="1" fill="none">
    <path d="M0,720 L1600,720"/>
    <path d="M0,760 L1600,760"/>
    <path d="M0,800 L1600,800"/>
  </g>

  <!-- mono path top-left -->
  <text x="60" y="64" font-family="JetBrains Mono, ui-monospace, monospace" font-size="15" letter-spacing="0.04em" fill="#a8b8d4">
    <tspan fill="#00d4ff">/</tspan>nix<tspan fill="#00d4ff">/</tspan>nutanix<tspan fill="#00d4ff">/</tspan>10
  </text>
  <text x="60" y="86" font-family="JetBrains Mono, ui-monospace, monospace" font-size="11" letter-spacing="0.10em" fill="#6b7a9a" opacity="0.85">MIGRATION PATH · MOVE · 7 PHASES · 12-18 MONTHS</text>

  <!-- ============================================================ -->
  <!-- SOURCE: vSphere cluster (left)                                -->
  <!-- ============================================================ -->
  <g transform="translate(140, 220)">
    <text x="220" y="-30" text-anchor="middle" font-family="JetBrains Mono, monospace" font-size="13" font-weight="600" letter-spacing="0.06em" fill="#cfddff">SOURCE · vSPHERE</text>
    <text x="220" y="-12" text-anchor="middle" font-family="JetBrains Mono, monospace" font-size="11" letter-spacing="0.06em" fill="#a8b8d4">ESXi · vCenter · NSX-T · SRM</text>

    <!-- vCenter badge -->
    <rect x="0" y="0" width="440" height="34" rx="2" fill="rgba(74,158,255,0.10)" stroke="#4a9eff" stroke-width="1.4"/>
    <text x="220" y="22" text-anchor="middle" font-family="Inter, sans-serif" font-size="12" font-weight="700" fill="#4a9eff" letter-spacing="0.10em">vCENTER · MANAGEMENT PLANE</text>

    <!-- 4 ESXi nodes -->
    <g>
      <g transform="translate(0,52)">
        <rect x="0" y="40" width="100" height="68" fill="url(#cubeFront)" stroke="#4a9eff" stroke-width="1.2"/>
        <polygon points="0,40 24,22 124,22 100,40" fill="url(#cubeTop)" stroke="#4a9eff" stroke-width="1.2"/>
        <polygon points="100,40 124,22 124,90 100,108" fill="url(#cubeSide)" stroke="#4a9eff" stroke-width="1.2"/>
        <rect x="12" y="48" width="76" height="12" fill="url(#esxiBand)" stroke="#1c3e6f" stroke-width="0.8"/>
        <text x="50" y="57" text-anchor="middle" font-family="JetBrains Mono, monospace" font-size="8" fill="#fff" letter-spacing="0.10em">ESXi</text>
        <g fill="#0a1628" stroke="#1f3a66" stroke-width="0.8">
          <rect x="12" y="68" width="76" height="5"/><rect x="12" y="76" width="76" height="5"/>
          <rect x="12" y="84" width="76" height="5"/><rect x="12" y="92" width="76" height="5"/>
        </g>
      </g>
      <g transform="translate(112,52)">
        <rect x="0" y="40" width="100" height="68" fill="url(#cubeFront)" stroke="#4a9eff" stroke-width="1.2"/>
        <polygon points="0,40 24,22 124,22 100,40" fill="url(#cubeTop)" stroke="#4a9eff" stroke-width="1.2"/>
        <polygon points="100,40 124,22 124,90 100,108" fill="url(#cubeSide)" stroke="#4a9eff" stroke-width="1.2"/>
        <rect x="12" y="48" width="76" height="12" fill="url(#esxiBand)" stroke="#1c3e6f" stroke-width="0.8"/>
        <text x="50" y="57" text-anchor="middle" font-family="JetBrains Mono, monospace" font-size="8" fill="#fff" letter-spacing="0.10em">ESXi</text>
        <g fill="#0a1628" stroke="#1f3a66" stroke-width="0.8">
          <rect x="12" y="68" width="76" height="5"/><rect x="12" y="76" width="76" height="5"/>
          <rect x="12" y="84" width="76" height="5"/><rect x="12" y="92" width="76" height="5"/>
        </g>
      </g>
      <g transform="translate(224,52)">
        <rect x="0" y="40" width="100" height="68" fill="url(#cubeFront)" stroke="#4a9eff" stroke-width="1.2"/>
        <polygon points="0,40 24,22 124,22 100,40" fill="url(#cubeTop)" stroke="#4a9eff" stroke-width="1.2"/>
        <polygon points="100,40 124,22 124,90 100,108" fill="url(#cubeSide)" stroke="#4a9eff" stroke-width="1.2"/>
        <rect x="12" y="48" width="76" height="12" fill="url(#esxiBand)" stroke="#1c3e6f" stroke-width="0.8"/>
        <text x="50" y="57" text-anchor="middle" font-family="JetBrains Mono, monospace" font-size="8" fill="#fff" letter-spacing="0.10em">ESXi</text>
        <g fill="#0a1628" stroke="#1f3a66" stroke-width="0.8">
          <rect x="12" y="68" width="76" height="5"/><rect x="12" y="76" width="76" height="5"/>
          <rect x="12" y="84" width="76" height="5"/><rect x="12" y="92" width="76" height="5"/>
        </g>
      </g>
      <g transform="translate(336,52)">
        <rect x="0" y="40" width="100" height="68" fill="url(#cubeFront)" stroke="#4a9eff" stroke-width="1.2"/>
        <polygon points="0,40 24,22 124,22 100,40" fill="url(#cubeTop)" stroke="#4a9eff" stroke-width="1.2"/>
        <polygon points="100,40 124,22 124,90 100,108" fill="url(#cubeSide)" stroke="#4a9eff" stroke-width="1.2"/>
        <rect x="12" y="48" width="76" height="12" fill="url(#esxiBand)" stroke="#1c3e6f" stroke-width="0.8"/>
        <text x="50" y="57" text-anchor="middle" font-family="JetBrains Mono, monospace" font-size="8" fill="#fff" letter-spacing="0.10em">ESXi</text>
        <g fill="#0a1628" stroke="#1f3a66" stroke-width="0.8">
          <rect x="12" y="68" width="76" height="5"/><rect x="12" y="76" width="76" height="5"/>
          <rect x="12" y="84" width="76" height="5"/><rect x="12" y="92" width="76" height="5"/>
        </g>
      </g>
    </g>

    <!-- VM stack on top - draining -->
    <g transform="translate(60, -90)">
      <rect x="0" y="0" width="320" height="62" fill="rgba(74,158,255,0.06)" stroke="#4a9eff" stroke-width="1" stroke-dasharray="3 4"/>
      <text x="160" y="20" text-anchor="middle" font-family="Inter, sans-serif" font-size="12" font-weight="700" fill="#4a9eff" letter-spacing="0.06em">~1,500 VMs · DRAINING</text>
      <!-- VM dot grid showing drain -->
      <g fill="#4a9eff">
        <rect x="20" y="32" width="14" height="10" opacity="0.65"/>
        <rect x="40" y="32" width="14" height="10" opacity="0.55"/>
        <rect x="60" y="32" width="14" height="10" opacity="0.45"/>
        <rect x="80" y="32" width="14" height="10" opacity="0.35"/>
        <rect x="100" y="32" width="14" height="10" opacity="0.25"/>
        <rect x="120" y="32" width="14" height="10" opacity="0.15"/>
      </g>
      <g fill="#6b7a9a">
        <rect x="142" y="32" width="14" height="10" opacity="0.4"/>
        <rect x="162" y="32" width="14" height="10" opacity="0.4"/>
        <rect x="182" y="32" width="14" height="10" opacity="0.4"/>
        <rect x="202" y="32" width="14" height="10" opacity="0.3"/>
        <rect x="222" y="32" width="14" height="10" opacity="0.3"/>
        <rect x="242" y="32" width="14" height="10" opacity="0.2"/>
        <rect x="262" y="32" width="14" height="10" opacity="0.2"/>
        <rect x="282" y="32" width="14" height="10" opacity="0.15"/>
      </g>
      <text x="160" y="56" text-anchor="middle" font-family="JetBrains Mono, monospace" font-size="10" fill="#a8b8d4">cyan = migrating · gray = staying (hybrid steady-state)</text>
    </g>

    <ellipse cx="220" cy="180" rx="240" ry="20" fill="url(#floor)"/>
  </g>

  <!-- ============================================================ -->
  <!-- TARGET: Nutanix cluster (right)                               -->
  <!-- ============================================================ -->
  <g transform="translate(1020, 220)">
    <text x="220" y="-30" text-anchor="middle" font-family="JetBrains Mono, monospace" font-size="13" font-weight="600" letter-spacing="0.06em" fill="#fff7ee">TARGET · NUTANIX</text>
    <text x="220" y="-12" text-anchor="middle" font-family="JetBrains Mono, monospace" font-size="11" letter-spacing="0.06em" fill="#a8b8d4">AHV · DSF · Prism · Flow</text>

    <!-- Prism Central badge -->
    <rect x="0" y="0" width="440" height="34" rx="2" fill="rgba(217,124,74,0.18)" stroke="#d97c4a" stroke-width="1.4"/>
    <text x="220" y="22" text-anchor="middle" font-family="Inter, sans-serif" font-size="12" font-weight="700" fill="#d97c4a" letter-spacing="0.10em">PRISM CENTRAL · MANAGEMENT PLANE</text>

    <!-- 4 AHV nodes -->
    <g>
      <g transform="translate(0,52)">
        <rect x="0" y="40" width="100" height="68" fill="url(#cubeFront)" stroke="#3a6cb0" stroke-width="1.2"/>
        <polygon points="0,40 24,22 124,22 100,40" fill="url(#cubeTop)" stroke="#3a6cb0" stroke-width="1.2"/>
        <polygon points="100,40 124,22 124,90 100,108" fill="url(#cubeSide)" stroke="#3a6cb0" stroke-width="1.2"/>
        <rect x="12" y="48" width="76" height="12" fill="url(#cvmGrad)" stroke="#a04020" stroke-width="0.8"/>
        <text x="50" y="57" text-anchor="middle" font-family="JetBrains Mono, monospace" font-size="8" fill="#fff" letter-spacing="0.10em">CVM</text>
        <g fill="#0a1628" stroke="#1f3a66" stroke-width="0.8">
          <rect x="12" y="68" width="76" height="5"/><rect x="12" y="76" width="76" height="5"/>
          <rect x="12" y="84" width="76" height="5"/><rect x="12" y="92" width="76" height="5"/>
        </g>
        <rect x="12" y="68" width="46" height="5" fill="#00d4ff" opacity="0.55"/>
      </g>
      <g transform="translate(112,52)">
        <rect x="0" y="40" width="100" height="68" fill="url(#cubeFront)" stroke="#3a6cb0" stroke-width="1.2"/>
        <polygon points="0,40 24,22 124,22 100,40" fill="url(#cubeTop)" stroke="#3a6cb0" stroke-width="1.2"/>
        <polygon points="100,40 124,22 124,90 100,108" fill="url(#cubeSide)" stroke="#3a6cb0" stroke-width="1.2"/>
        <rect x="12" y="48" width="76" height="12" fill="url(#cvmGrad)" stroke="#a04020" stroke-width="0.8"/>
        <text x="50" y="57" text-anchor="middle" font-family="JetBrains Mono, monospace" font-size="8" fill="#fff" letter-spacing="0.10em">CVM</text>
        <g fill="#0a1628" stroke="#1f3a66" stroke-width="0.8">
          <rect x="12" y="68" width="76" height="5"/><rect x="12" y="76" width="76" height="5"/>
          <rect x="12" y="84" width="76" height="5"/><rect x="12" y="92" width="76" height="5"/>
        </g>
        <rect x="12" y="68" width="60" height="5" fill="#00d4ff" opacity="0.55"/>
      </g>
      <g transform="translate(224,52)">
        <rect x="0" y="40" width="100" height="68" fill="url(#cubeFront)" stroke="#3a6cb0" stroke-width="1.2"/>
        <polygon points="0,40 24,22 124,22 100,40" fill="url(#cubeTop)" stroke="#3a6cb0" stroke-width="1.2"/>
        <polygon points="100,40 124,22 124,90 100,108" fill="url(#cubeSide)" stroke="#3a6cb0" stroke-width="1.2"/>
        <rect x="12" y="48" width="76" height="12" fill="url(#cvmGrad)" stroke="#a04020" stroke-width="0.8"/>
        <text x="50" y="57" text-anchor="middle" font-family="JetBrains Mono, monospace" font-size="8" fill="#fff" letter-spacing="0.10em">CVM</text>
        <g fill="#0a1628" stroke="#1f3a66" stroke-width="0.8">
          <rect x="12" y="68" width="76" height="5"/><rect x="12" y="76" width="76" height="5"/>
          <rect x="12" y="84" width="76" height="5"/><rect x="12" y="92" width="76" height="5"/>
        </g>
        <rect x="12" y="68" width="38" height="5" fill="#00d4ff" opacity="0.55"/>
      </g>
      <g transform="translate(336,52)">
        <rect x="0" y="40" width="100" height="68" fill="url(#cubeFront)" stroke="#3a6cb0" stroke-width="1.2"/>
        <polygon points="0,40 24,22 124,22 100,40" fill="url(#cubeTop)" stroke="#3a6cb0" stroke-width="1.2"/>
        <polygon points="100,40 124,22 124,90 100,108" fill="url(#cubeSide)" stroke="#3a6cb0" stroke-width="1.2"/>
        <rect x="12" y="48" width="76" height="12" fill="url(#cvmGrad)" stroke="#a04020" stroke-width="0.8"/>
        <text x="50" y="57" text-anchor="middle" font-family="JetBrains Mono, monospace" font-size="8" fill="#fff" letter-spacing="0.10em">CVM</text>
        <g fill="#0a1628" stroke="#1f3a66" stroke-width="0.8">
          <rect x="12" y="68" width="76" height="5"/><rect x="12" y="76" width="76" height="5"/>
          <rect x="12" y="84" width="76" height="5"/><rect x="12" y="92" width="76" height="5"/>
        </g>
        <rect x="12" y="68" width="52" height="5" fill="#00d4ff" opacity="0.55"/>
      </g>
    </g>

    <!-- VM stack on top - filling -->
    <g transform="translate(60,-90)">
      <rect x="0" y="0" width="320" height="62" fill="rgba(217,124,74,0.10)" stroke="#d97c4a" stroke-width="1" stroke-dasharray="3 4"/>
      <text x="160" y="20" text-anchor="middle" font-family="Inter, sans-serif" font-size="12" font-weight="700" fill="#d97c4a" letter-spacing="0.06em">MIGRATED VMs · BUILDING UP</text>
      <g fill="#d97c4a">
        <rect x="20" y="32" width="14" height="10"/>
        <rect x="40" y="32" width="14" height="10"/>
        <rect x="60" y="32" width="14" height="10"/>
        <rect x="80" y="32" width="14" height="10" opacity="0.85"/>
        <rect x="100" y="32" width="14" height="10" opacity="0.75"/>
        <rect x="120" y="32" width="14" height="10" opacity="0.65"/>
        <rect x="140" y="32" width="14" height="10" opacity="0.55"/>
        <rect x="160" y="32" width="14" height="10" opacity="0.45"/>
        <rect x="180" y="32" width="14" height="10" opacity="0.35"/>
        <rect x="200" y="32" width="14" height="10" opacity="0.25"/>
      </g>
      <g fill="#6b7a9a" opacity="0.3">
        <rect x="222" y="32" width="14" height="10"/>
        <rect x="242" y="32" width="14" height="10"/>
        <rect x="262" y="32" width="14" height="10"/>
        <rect x="282" y="32" width="14" height="10"/>
      </g>
      <text x="160" y="56" text-anchor="middle" font-family="JetBrains Mono, monospace" font-size="10" fill="#a8b8d4">rust = migrated · faded = remaining capacity</text>
    </g>

    <ellipse cx="220" cy="180" rx="240" ry="20" fill="url(#floor)"/>
  </g>

  <!-- ============================================================ -->
  <!-- MOVE APPLIANCE + ARROW (center)                               -->
  <!-- ============================================================ -->

  <!-- Move appliance badge -->
  <g transform="translate(720, 240)" filter="url(#cyanGlow)">
    <rect x="0" y="0" width="160" height="60" rx="6" fill="rgba(0,212,255,0.18)" stroke="#00d4ff" stroke-width="2"/>
    <text x="80" y="22" text-anchor="middle" font-family="Inter, sans-serif" font-size="14" font-weight="700" fill="#00d4ff" letter-spacing="0.10em">MOVE</text>
    <text x="80" y="38" text-anchor="middle" font-family="JetBrains Mono, monospace" font-size="10" fill="#cfeeff">migration tool</text>
    <text x="80" y="52" text-anchor="middle" font-family="JetBrains Mono, monospace" font-size="9" fill="#a8b8d4">replicate · sync · cutover</text>
  </g>

  <!-- migrating VM capsules along the arrow -->
  <g>
    <rect x="640" y="318" width="22" height="14" rx="2" fill="rgba(74,158,255,0.5)" stroke="#4a9eff" stroke-width="0.8"/>
    <rect x="700" y="316" width="22" height="14" rx="2" fill="rgba(0,212,255,0.7)" stroke="#00d4ff" stroke-width="0.8"/>
    <rect x="780" y="318" width="22" height="14" rx="2" fill="rgba(217,124,74,0.5)" stroke="#d97c4a" stroke-width="0.8"/>
    <rect x="840" y="320" width="22" height="14" rx="2" fill="rgba(217,124,74,0.7)" stroke="#d97c4a" stroke-width="0.8"/>
  </g>

  <!-- Big arrow source -> target -->
  <g filter="url(#cyanGlow)">
    <path d="M 580 340 L 1020 340" stroke="#00d4ff" stroke-width="3" fill="none" stroke-linecap="round" marker-end="url(#arrowMove)"/>
  </g>
  <g>
    <path d="M 580 340 L 1020 340" stroke="url(#movePulse)" stroke-width="2" fill="none" stroke-linecap="round"/>
  </g>
  <text x="800" y="372" text-anchor="middle" font-family="JetBrains Mono, monospace" font-size="11" font-weight="600" fill="#00d4ff" letter-spacing="0.10em">REPLICATE → SYNC DELTAS → 5-30 MIN CUTOVER</text>

  <!-- parallel-running overlap band -->
  <g transform="translate(560, 388)">
    <rect x="0" y="0" width="480" height="22" rx="2" fill="rgba(251,191,36,0.10)" stroke="#fbbf24" stroke-width="1" stroke-dasharray="4 3"/>
    <text x="240" y="15" text-anchor="middle" font-family="JetBrains Mono, monospace" font-size="10" font-weight="600" fill="#fbbf24" letter-spacing="0.06em">PARALLEL-RUNNING · BOTH PLATFORMS LIVE FOR 12-18 MONTHS</text>
  </g>

  <!-- ============================================================ -->
  <!-- 7-PHASE TIMELINE RIBBON (bottom)                              -->
  <!-- ============================================================ -->
  <g transform="translate(80, 540)">
    <text x="720" y="0" text-anchor="middle" font-family="Inter, sans-serif" font-size="16" font-weight="700" fill="#e8f0ff" letter-spacing="0.10em">7-PHASE FRAMEWORK · 24 MONTHS</text>
    <text x="720" y="18" text-anchor="middle" font-family="JetBrains Mono, monospace" font-size="11" letter-spacing="0.06em" fill="#a8b8d4">DISCOVERY → BUILD → PILOT → WAVE 1 → WAVE 2 → WAVE 3 → STABILIZE</text>

    <!-- timeline base -->
    <line x1="0" y1="60" x2="1440" y2="60" stroke="#4a9eff" stroke-width="2" stroke-dasharray="6 4" opacity="0.6"/>

    <!-- phase blocks -->
    <g>
      <rect x="0" y="40" width="120" height="40" rx="4" fill="rgba(192,132,252,0.18)" stroke="#c084fc" stroke-width="1.4"/>
      <text x="60" y="58" text-anchor="middle" font-family="JetBrains Mono, monospace" font-size="10" font-weight="700" fill="#c084fc" letter-spacing="0.08em">PHASE 0</text>
      <text x="60" y="72" text-anchor="middle" font-family="JetBrains Mono, monospace" font-size="9" fill="#cfeeff">DISCOVERY</text>
    </g>
    <g>
      <rect x="140" y="40" width="120" height="40" rx="4" fill="rgba(74,158,255,0.18)" stroke="#4a9eff" stroke-width="1.4"/>
      <text x="200" y="58" text-anchor="middle" font-family="JetBrains Mono, monospace" font-size="10" font-weight="700" fill="#4a9eff" letter-spacing="0.08em">PHASE 1</text>
      <text x="200" y="72" text-anchor="middle" font-family="JetBrains Mono, monospace" font-size="9" fill="#cfeeff">BUILD</text>
    </g>
    <g>
      <rect x="280" y="40" width="120" height="40" rx="4" fill="rgba(0,212,255,0.18)" stroke="#00d4ff" stroke-width="1.4"/>
      <text x="340" y="58" text-anchor="middle" font-family="JetBrains Mono, monospace" font-size="10" font-weight="700" fill="#00d4ff" letter-spacing="0.08em">PHASE 2</text>
      <text x="340" y="72" text-anchor="middle" font-family="JetBrains Mono, monospace" font-size="9" fill="#cfeeff">PILOT</text>
    </g>
    <g>
      <rect x="420" y="40" width="180" height="40" rx="4" fill="rgba(52,211,153,0.18)" stroke="#34d399" stroke-width="1.4"/>
      <text x="510" y="58" text-anchor="middle" font-family="JetBrains Mono, monospace" font-size="10" font-weight="700" fill="#34d399" letter-spacing="0.08em">PHASE 3 · WAVE 1</text>
      <text x="510" y="72" text-anchor="middle" font-family="JetBrains Mono, monospace" font-size="9" fill="#cfeeff">LOW-TIER · 100-200 VMs</text>
    </g>
    <g>
      <rect x="620" y="40" width="200" height="40" rx="4" fill="rgba(251,191,36,0.18)" stroke="#fbbf24" stroke-width="1.4"/>
      <text x="720" y="58" text-anchor="middle" font-family="JetBrains Mono, monospace" font-size="10" font-weight="700" fill="#fbbf24" letter-spacing="0.08em">PHASE 4 · WAVE 2</text>
      <text x="720" y="72" text-anchor="middle" font-family="JetBrains Mono, monospace" font-size="9" fill="#cfeeff">TIER-1 · 200-600 VMs</text>
    </g>
    <g>
      <rect x="840" y="40" width="180" height="40" rx="4" fill="rgba(248,113,113,0.18)" stroke="#f87171" stroke-width="1.4"/>
      <text x="930" y="58" text-anchor="middle" font-family="JetBrains Mono, monospace" font-size="10" font-weight="700" fill="#f87171" letter-spacing="0.08em">PHASE 5 · WAVE 3</text>
      <text x="930" y="72" text-anchor="middle" font-family="JetBrains Mono, monospace" font-size="9" fill="#cfeeff">MISSION-CRITICAL</text>
    </g>
    <g>
      <rect x="1040" y="40" width="200" height="40" rx="4" fill="rgba(217,124,74,0.18)" stroke="#d97c4a" stroke-width="1.4"/>
      <text x="1140" y="58" text-anchor="middle" font-family="JetBrains Mono, monospace" font-size="10" font-weight="700" fill="#d97c4a" letter-spacing="0.08em">PHASE 6</text>
      <text x="1140" y="72" text-anchor="middle" font-family="JetBrains Mono, monospace" font-size="9" fill="#cfeeff">STABILIZE · DECOMM</text>
    </g>
    <g>
      <rect x="1260" y="40" width="180" height="40" rx="4" fill="rgba(107,122,154,0.10)" stroke="#6b7a9a" stroke-width="1.2" stroke-dasharray="3 4"/>
      <text x="1350" y="58" text-anchor="middle" font-family="JetBrains Mono, monospace" font-size="10" font-weight="700" fill="#a8b8d4" letter-spacing="0.08em">YEAR 2 STABLE</text>
      <text x="1350" y="72" text-anchor="middle" font-family="JetBrains Mono, monospace" font-size="9" fill="#cfeeff">hybrid steady-state</text>
    </g>

    <!-- month markers -->
    <g font-family="JetBrains Mono, monospace" font-size="10" fill="#6b7a9a">
      <text x="60" y="100" text-anchor="middle">M0–2</text>
      <text x="200" y="100" text-anchor="middle">M1–3</text>
      <text x="340" y="100" text-anchor="middle">M3–5</text>
      <text x="510" y="100" text-anchor="middle">M4–8</text>
      <text x="720" y="100" text-anchor="middle">M7–13</text>
      <text x="930" y="100" text-anchor="middle">M12–16</text>
      <text x="1140" y="100" text-anchor="middle">M15–18</text>
      <text x="1350" y="100" text-anchor="middle">M19+</text>
    </g>

    <!-- key annotation -->
    <text x="720" y="146" text-anchor="middle" font-family="Inter, sans-serif" font-size="13" font-style="italic" fill="#cfeeff">phases overlap on purpose · sequence by RISK, not by convenience · pilot before scale</text>
  </g>

  <!-- ============================================================ -->
  <!-- bottom-left framing line                                      -->
  <!-- ============================================================ -->
  <g transform="translate(60, 836)">
    <text x="0" y="0" font-family="Inter, sans-serif" font-size="13" font-weight="700" fill="#e8f0ff" letter-spacing="0.10em">THE CUSTOMER-RUNNING PLAYBOOK</text>
    <text x="0" y="20" font-family="JetBrains Mono, monospace" font-size="11" fill="#a8b8d4">discovery · pilot · waves · cutover · hybrid steady-state · year-2 relationship</text>
  </g>

  <!-- vignette -->
  <radialGradient id="vignette" cx="50%" cy="50%" r="78%">
    <stop offset="60%" stop-color="rgba(0,0,0,0)"/>
    <stop offset="100%" stop-color="rgba(0,0,0,0.55)"/>
  </radialGradient>
  <rect width="1600" height="900" fill="url(#vignette)"/>
</svg>
